<svg xmlns="http://www.w3.org/2000/svg" xmlns:xlink="http://www.w3.org/1999/xlink" xmlns:lucid="lucid" width="360" height="800"><g transform="translate(0 0)" lucid:page-tab-id="0_0"><path d="M128 0c17.67 0 32 13.43 32 30s-14.33 30-32 30H32C14.33 60 0 46.57 0 30S14.33 0 32 0z" stroke="#000" stroke-opacity="0"/><use xlink:href="#a" transform="matrix(1,0,0,1,5,5) translate(30.05 30.1)"/><use xlink:href="#b" transform="matrix(1,0,0,1,5,5) translate(72 30.1)"/><path d="M200 8a8 8 0 0 1 8-8h144a8 8 0 0 1 8 8v24.8a8 8 0 0 1-8 8H208a8 8 0 0 1-8-8z" stroke="#000" stroke-opacity="0" fill="#0c7cba"/><use xlink:href="#c" transform="matrix(1,0,0,1,205,5) translate(15.650000000000002 19.5375)"/><use xlink:href="#d" transform="matrix(1,0,0,1,205,5) translate(76.55000000000001 19.5375)"/><path d="M200 48a8 8 0 0 1 8-8h144a8 8 0 0 1 8 8v23.2a8 8 0 0 1-8 8H208a8 8 0 0 1-8-8z" stroke="#000" stroke-opacity="0" fill="#dcf5f5"/><use xlink:href="#e" transform="matrix(1,0,0,1,212,51.99999999999997) translate(48.5 14.4)"/><path d="M327.68 100c17.63 0 31.92 13.43 31.92 30s-14.3 30-31.92 30h-95.76C214.3 160 200 146.57 200 130s14.3-30 31.92-30z" stroke="#000" stroke-opacity="0"/><use xlink:href="#f" transform="matrix(1,0,0,1,205,104.99999999999997) translate(24.575 30.1)"/><use xlink:href="#b" transform="matrix(1,0,0,1,205,104.99999999999997) translate(77.47500000000001 30.1)"/><path d="M0 88a8 8 0 0 1 8-8h144a8 8 0 0 1 8 8v24.8a8 8 0 0 1-8 8H8a8 8 0 0 1-8-8z" stroke="#000" stroke-opacity="0" fill="#0c7cba"/><use xlink:href="#g" transform="matrix(1,0,0,1,5,85) translate(36.05 19.5375)"/><path d="M0 128a8 8 0 0 1 8-8h144a8 8 0 0 1 8 8v23.2a8 8 0 0 1-8 8H8a8 8 0 0 1-8-8z" stroke="#000" stroke-opacity="0" fill="#dcf5f5"/><use xlink:href="#h" transform="matrix(1,0,0,1,12,131.99999999999997) translate(16.200000000000003 14.4)"/><path d="M128 180c17.67 0 32 13.43 32 30s-14.33 30-32 30H32c-17.67 0-32-13.43-32-30s14.33-30 32-30z" stroke="#000" stroke-opacity="0"/><use xlink:href="#i" transform="matrix(1,0,0,1,5,185) translate(41.625 30.1)"/><path d="M200 468a8 8 0 0 1 8-8h144a8 8 0 0 1 8 8v24.8a8 8 0 0 1-8 8H208a8 8 0 0 1-8-8z" stroke="#000" stroke-opacity="0" fill="#0c7cba"/><use xlink:href="#j" transform="matrix(1,0,0,1,205,464.9999999999999) translate(11.575 19.5375)"/><use xlink:href="#k" transform="matrix(1,0,0,1,205,464.9999999999999) translate(60.575 19.5375)"/><path d="M200 508a8 8 0 0 1 8-8h144a8 8 0 0 1 8 8v23.2a8 8 0 0 1-8 8H208a8 8 0 0 1-8-8z" stroke="#000" stroke-opacity="0" fill="#dcf5f5"/><use xlink:href="#l" transform="matrix(1,0,0,1,212,511.99999999999966) translate(35.074999999999996 14.4)"/><path d="M328 280c17.67 0 32 13.43 32 30s-14.33 30-32 30h-96c-17.67 0-32-13.43-32-30s14.33-30 32-30z" stroke="#000" stroke-opacity="0"/><use xlink:href="#m" transform="matrix(1,0,0,1,205,285) translate(26.124999999999996 30.1)"/><path d="M328 560c17.67 0 32 13.43 32 30s-14.33 30-32 30h-96c-17.67 0-32-13.43-32-30s14.33-30 32-30z" stroke="#000" stroke-opacity="0"/><use xlink:href="#n" transform="matrix(1,0,0,1,205,565) translate(44.125 20.725)"/><use xlink:href="#o" transform="matrix(1,0,0,1,205,565) translate(28.575 42.325)"/><path d="M200 648a8 8 0 0 1 8-8h144a8 8 0 0 1 8 8v24.8a8 8 0 0 1-8 8H208a8 8 0 0 1-8-8z" stroke="#000" stroke-opacity="0" fill="#0c7cba"/><use xlink:href="#p" transform="matrix(1,0,0,1,205,645) translate(32.025000000000006 19.5375)"/><path d="M200 688a8 8 0 0 1 8-8h144a8 8 0 0 1 8 8v23.2a8 8 0 0 1-8 8H208a8 8 0 0 1-8-8z" stroke="#000" stroke-opacity="0" fill="#dcf5f5"/><use xlink:href="#q" transform="matrix(1,0,0,1,212,691.9999999999999) translate(-0.9000000000000057 14.4)"/><path d="M328 740c17.67 0 32 13.43 32 30s-14.33 30-32 30h-96c-17.67 0-32-13.43-32-30s14.33-30 32-30z" stroke="#000" stroke-opacity="0"/><use xlink:href="#r" transform="matrix(1,0,0,1,205,745) translate(30.675 20.725)"/><use xlink:href="#s" transform="matrix(1,0,0,1,205,745) translate(39.599999999999994 42.325)"/><path d="M200 188a8 8 0 0 1 8-8h144a8 8 0 0 1 8 8v24.8a8 8 0 0 1-8 8H208a8 8 0 0 1-8-8z" stroke="#000" stroke-opacity="0" fill="#0c7cba"/><use xlink:href="#t" transform="matrix(1,0,0,1,205,184.99999999999997) translate(16.575 19.5375)"/><use xlink:href="#u" transform="matrix(1,0,0,1,205,184.99999999999997) translate(64.525 19.5375)"/><path d="M200 228a8 8 0 0 1 8-8h144a8 8 0 0 1 8 8v23.2a8 8 0 0 1-8 8H208a8 8 0 0 1-8-8z" stroke="#000" stroke-opacity="0" fill="#dcf5f5"/><use xlink:href="#v" transform="matrix(1,0,0,1,212,232) translate(47.85 14.4)"/><path d="M0 268a8 8 0 0 1 8-8h144a8 8 0 0 1 8 8v24.8a8 8 0 0 1-8 8H8a8 8 0 0 1-8-8z" stroke="#000" stroke-opacity="0" fill="#0c7cba"/><use xlink:href="#w" transform="matrix(1,0,0,1,5,265) translate(45.05 19.5375)"/><path d="M0 308a8 8 0 0 1 8-8h144a8 8 0 0 1 8 8v23.2a8 8 0 0 1-8 8H8a8 8 0 0 1-8-8z" stroke="#000" stroke-opacity="0" fill="#dcf5f5"/><use xlink:href="#x" transform="matrix(1,0,0,1,12,312) translate(23.9 14.4)"/><use xlink:href="#y" transform="matrix(1,0,0,1,12,312) translate(102.1 14.4)"/><path d="M280 259.7v3.92" stroke="#333" fill="none"/><path d="M280.48 259.7h-.96v-.5h.96z" stroke="#333" stroke-width=".05" fill="#333"/><path d="M280 278.38l-4.63-14.26h9.26z" stroke="#333" fill="#333"/><path d="M128 360c17.67 0 32 13.43 32 30s-14.33 30-32 30H32c-17.67 0-32-13.43-32-30s14.33-30 32-30z" stroke="#000" stroke-opacity="0"/><use xlink:href="#z" transform="matrix(1,0,0,1,5,365.00000000000017) translate(55.55 30.1)"/><path d="M0 448a8 8 0 0 1 8-8h144a8 8 0 0 1 8 8v24.8a8 8 0 0 1-8 8H8a8 8 0 0 1-8-8z" stroke="#000" stroke-opacity="0" fill="#0c7cba"/><use xlink:href="#A" transform="matrix(1,0,0,1,5,445.0000000000001) translate(46.05000000000001 19.5375)"/><use xlink:href="#B" transform="matrix(1,0,0,1,5,445.0000000000001) translate(77 19.5375)"/><path d="M0 488a8 8 0 0 1 8-8h144a8 8 0 0 1 8 8v23.2a8 8 0 0 1-8 8H8a8 8 0 0 1-8-8z" stroke="#000" stroke-opacity="0" fill="#dcf5f5"/><use xlink:href="#C" transform="matrix(1,0,0,1,12,492) translate(35.05 14.4)"/><path d="M128 640c17.67 0 32 13.43 32 30s-14.33 30-32 30H32c-17.67 0-32-13.43-32-30s14.33-30 32-30z" stroke="#000" stroke-opacity="0"/><use xlink:href="#D" transform="matrix(1,0,0,1,5,645) translate(23.174999999999994 20.725)"/><use xlink:href="#E" transform="matrix(1,0,0,1,5,645) translate(48.05 42.325)"/><path d="M280 539.7v3.92" stroke="#333" fill="none"/><path d="M280.48 539.7h-.96v-.5h.96z" stroke="#333" stroke-width=".05" fill="#333"/><path d="M280 558.38l-4.63-14.26h9.26z" stroke="#333" fill="#333"/><path d="M200 368a8 8 0 0 1 8-8h144a8 8 0 0 1 8 8v24.8a8 8 0 0 1-8 8H208a8 8 0 0 1-8-8z" stroke="#000" stroke-opacity="0" fill="#0c7cba"/><use xlink:href="#F" transform="matrix(1,0,0,1,205,365) translate(22.124999999999996 19.5375)"/><path d="M200 408a8 8 0 0 1 8-8h144a8 8 0 0 1 8 8v23.2a8 8 0 0 1-8 8H208a8 8 0 0 1-8-8z" stroke="#000" stroke-opacity="0" fill="#dcf5f5"/><use xlink:href="#G" transform="matrix(1,0,0,1,212,411.9999999999998) translate(30.099999999999994 14.4)"/><path d="M0 548a8 8 0 0 1 8-8h144a8 8 0 0 1 8 8v24.8a8 8 0 0 1-8 8H8a8 8 0 0 1-8-8z" stroke="#000" stroke-opacity="0" fill="#0c7cba"/><use xlink:href="#H" transform="matrix(1,0,0,1,5,545) translate(22.624999999999996 19.5375)"/><path d="M0 588a8 8 0 0 1 8-8h144a8 8 0 0 1 8 8v23.2a8 8 0 0 1-8 8H8a8 8 0 0 1-8-8z" stroke="#000" stroke-opacity="0" fill="#dcf5f5"/><use xlink:href="#I" transform="matrix(1,0,0,1,12,591.9999999999998) translate(46.525 14.4)"/><path d="M80 159.7v4.32" stroke="#333" fill="none"/><path d="M80.47 159.7h-.94v-.5h.94z" stroke="#333" stroke-width=".05" fill="#333"/><path d="M79.64 178.38L75.36 164l9.27.24z" stroke="#333" fill="#333"/><path d="M160.5 30h23.12" stroke="#333" fill="none"/><path d="M160.5 30.48h-.54L160 30v-.24l-.02-.24h.53z" stroke="#333" stroke-width=".05" fill="#333"/><path d="M198.38 30l-14.26 4.63v-9.27z" stroke="#333" fill="#333"/><path d="M80 619.7v3.92" stroke="#333" fill="none"/><path d="M80.47 619.7h-.94v-.5h.94z" stroke="#333" stroke-width=".05" fill="#333"/><path d="M80 638.38l-4.64-14.26h9.28z" stroke="#333" fill="#333"/><path d="M280 719.7v3.92" stroke="#333" fill="none"/><path d="M280.48 719.7h-.96v-.5h.96z" stroke="#333" stroke-width=".05" fill="#333"/><path d="M280 738.38l-4.63-14.26h9.26z" stroke="#333" fill="#333"/><path d="M80 240.5v3.12" stroke="#333" fill="none"/><path d="M80.47 240.5h-.94v-.5h.94z" stroke="#333" stroke-width=".05" fill="#333"/><path d="M80 258.38l-4.64-14.26h9.28z" stroke="#333" fill="#333"/><path d="M279.8 160.5v3.12" stroke="#333" fill="none"/><path d="M280.27 160.5h-.94v-.5h.94z" stroke="#333" stroke-width=".05" fill="#333"/><path d="M279.8 178.38l-4.63-14.26h9.26z" stroke="#333" fill="#333"/><path d="M280 79.7v3.92" stroke="#333" fill="none"/><path d="M280.48 79.7h-.96v-.5h.96z" stroke="#333" stroke-width=".05" fill="#333"/><path d="M280 98.38l-4.63-14.26h9.26z" stroke="#333" fill="#333"/><path d="M80 339.7v3.92" stroke="#333" fill="none"/><path d="M80.47 339.7h-.94v-.5h.94z" stroke="#333" stroke-width=".05" fill="#333"/><path d="M80 358.38l-4.64-14.26h9.28z" stroke="#333" fill="#333"/><path d="M199.5 130h-23.12" stroke="#333" fill="none"/><path d="M200 130v.13l.03.34h-.54v-.94h.54z" stroke="#333" stroke-width=".05" fill="#333"/><path d="M161.62 130l14.26-4.64v9.27z" stroke="#333" fill="#333"/><path d="M160.5 210h23.12" stroke="#333" fill="none"/><path d="M160.5 210.47h-.54l.04-.47v-.24l-.02-.23h.53z" stroke="#333" stroke-width=".05" fill="#333"/><path d="M198.38 210l-14.26 4.63v-9.26z" stroke="#333" fill="#333"/><path d="M199.5 310h-23.12" stroke="#333" fill="none"/><path d="M200 310v.24l.02.24h-.53v-.96h.54z" stroke="#333" stroke-width=".05" fill="#333"/><path d="M161.62 310l14.26-4.63v9.26z" stroke="#333" fill="#333"/><path d="M80 420.5v3.12" stroke="#333" fill="none"/><path d="M80.47 420.5h-.94v-.5h.94z" stroke="#333" stroke-width=".05" fill="#333"/><path d="M80 438.38l-4.64-14.26h9.28z" stroke="#333" fill="#333"/><path d="M80 519.7v3.92" stroke="#333" fill="none"/><path d="M80.47 519.7h-.94v-.5h.94z" stroke="#333" stroke-width=".05" fill="#333"/><path d="M80 538.38l-4.64-14.26h9.28z" stroke="#333" fill="#333"/><path d="M280 620.5v3.12" stroke="#333" fill="none"/><path d="M280.48 620.5h-.96v-.5h.96z" stroke="#333" stroke-width=".05" fill="#333"/><path d="M280 638.38l-4.63-14.26h9.26z" stroke="#333" fill="#333"/><path d="M160.5 390h23.12" stroke="#333" fill="none"/><path d="M160.5 390.48h-.54l.04-.48v-.24l-.02-.24h.53z" stroke="#333" stroke-width=".05" fill="#333"/><path d="M198.38 390l-14.26 4.63v-9.26z" stroke="#333" fill="#333"/><path d="M160.5 670h7.5a12 12 0 0 0 12-12V484.02a3.62 3.62 0 0 1 3.62-3.62" stroke="#333" fill="none"/><path d="M160.5 670.48h-.54l.04-.48v-.24l-.02-.24h.53z" stroke="#333" stroke-width=".05" fill="#333"/><path d="M198.38 480.4l-14.26 4.64v-9.28z" stroke="#333" fill="#333"/><defs><path fill="#fff" d="M240-174c0 40-23 61-54 70L253 0h-59l-57-94H76V0H24v-248c93 4 217-23 216 74zM76-134c48-2 112 12 112-38 0-48-66-32-112-35v73" id="J"/><path fill="#fff" d="M133-34C117-15 103 5 69 4 32 3 11-16 11-54c-1-60 55-63 116-61 1-26-3-47-28-47-18 1-26 9-28 27l-52-2c7-38 36-58 82-57s74 22 75 68l1 82c-1 14 12 18 25 15v27c-30 8-71 5-69-32zm-48 3c29 0 43-24 42-57-32 0-66-3-65 30 0 17 8 27 23 27" id="K"/><path fill="#fff" d="M231 0h-52l-39-155L100 0H48L-1-190h46L77-45c9-52 24-97 36-145h53l37 145 32-145h46" id="L"/><g id="a"><use transform="matrix(0.05,0,0,0.05,0,0)" xlink:href="#J"/><use transform="matrix(0.05,0,0,0.05,12.950000000000001,0)" xlink:href="#K"/><use transform="matrix(0.05,0,0,0.05,22.950000000000003,0)" xlink:href="#L"/></g><path fill="#fff" d="M135-150c-39-12-60 13-60 57V0H25l-1-190h47c2 13-1 29 3 40 6-28 27-53 61-41v41" id="M"/><path fill="#fff" d="M185-48c-13 30-37 53-82 52C43 2 14-33 14-96s30-98 90-98c62 0 83 45 84 108H66c0 31 8 55 39 56 18 0 30-7 34-22zm-45-69c5-46-57-63-70-21-2 6-4 13-4 21h74" id="N"/><path fill="#fff" d="M88-194c31-1 46 15 58 34l-1-101h50l1 261h-48c-2-10 0-23-3-31C134-8 116 4 84 4 32 4 16-41 15-95c0-56 19-97 73-99zm17 164c33 0 40-30 41-66 1-37-9-64-41-64s-38 30-39 65c0 43 13 65 39 65" id="O"/><path fill="#fff" d="M137-138c1-29-70-34-71-4 15 46 118 7 119 86 1 83-164 76-172 9l43-7c4 19 20 25 44 25 33 8 57-30 24-41C81-84 22-81 20-136c-2-80 154-74 161-7" id="P"/><g id="b"><use transform="matrix(0.05,0,0,0.05,0,0)" xlink:href="#M"/><use transform="matrix(0.05,0,0,0.05,7,0)" xlink:href="#N"/><use transform="matrix(0.05,0,0,0.05,17,0)" xlink:href="#K"/><use transform="matrix(0.05,0,0,0.05,27,0)" xlink:href="#O"/><use transform="matrix(0.05,0,0,0.05,37.95,0)" xlink:href="#P"/></g><path fill="#fff" d="M140-251c81 0 123 46 123 126C263-53 228-8 163 1c7 30 30 48 69 40v23c-55 16-95-15-103-61C56-3 17-48 17-125c0-80 42-126 123-126zm0 227c63 0 89-41 89-101s-29-99-89-99c-61 0-89 39-89 99S79-25 140-24" id="Q"/><path fill="#fff" d="M84 4C-5 8 30-112 23-190h32v120c0 31 7 50 39 49 72-2 45-101 50-169h31l1 190h-30c-1-10 1-25-2-33-11 22-28 36-60 37" id="R"/><path fill="#fff" d="M141-36C126-15 110 5 73 4 37 3 15-17 15-53c-1-64 63-63 125-63 3-35-9-54-41-54-24 1-41 7-42 31l-33-3c5-37 33-52 76-52 45 0 72 20 72 64v82c-1 20 7 32 28 27v20c-31 9-61-2-59-35zM48-53c0 20 12 33 32 33 41-3 63-29 60-74-43 2-92-5-92 41" id="S"/><path fill="#fff" d="M24 0v-261h32V0H24" id="T"/><path fill="#fff" d="M24-231v-30h32v30H24zM24 0v-190h32V0H24" id="U"/><path fill="#fff" d="M59-47c-2 24 18 29 38 22v24C64 9 27 4 27-40v-127H5v-23h24l9-43h21v43h35v23H59v120" id="V"/><path fill="#fff" d="M179-190L93 31C79 59 56 82 12 73V49c39 6 53-20 64-50L1-190h34L92-34l54-156h33" id="W"/><g id="c"><use transform="matrix(0.05,0,0,0.05,0,0)" xlink:href="#Q"/><use transform="matrix(0.05,0,0,0.05,14,0)" xlink:href="#R"/><use transform="matrix(0.05,0,0,0.05,24,0)" xlink:href="#S"/><use transform="matrix(0.05,0,0,0.05,34,0)" xlink:href="#T"/><use transform="matrix(0.05,0,0,0.05,37.95,0)" xlink:href="#U"/><use transform="matrix(0.05,0,0,0.05,41.900000000000006,0)" xlink:href="#V"/><use transform="matrix(0.05,0,0,0.05,46.900000000000006,0)" xlink:href="#W"/></g><path fill="#fff" d="M101-234c-31-9-42 10-38 44h38v23H63V0H32v-167H5v-23h27c-7-52 17-82 69-68v24" id="X"/><path fill="#fff" d="M100-194c63 0 86 42 84 106H49c0 40 14 67 53 68 26 1 43-12 49-29l28 8c-11 28-37 45-77 45C44 4 14-33 15-96c1-61 26-98 85-98zm52 81c6-60-76-77-97-28-3 7-6 17-6 28h103" id="Y"/><path fill="#fff" d="M114-163C36-179 61-72 57 0H25l-1-190h30c1 12-1 29 2 39 6-27 23-49 58-41v29" id="Z"/><path fill="#fff" d="M117-194c89-4 53 116 60 194h-32v-121c0-31-8-49-39-48C34-167 62-67 57 0H25l-1-190h30c1 10-1 24 2 32 11-22 29-35 61-36" id="aa"/><path fill="#fff" d="M177-190C167-65 218 103 67 71c-23-6-38-20-44-43l32-5c15 47 100 32 89-28v-30C133-14 115 1 83 1 29 1 15-40 15-95c0-56 16-97 71-98 29-1 48 16 59 35 1-10 0-23 2-32h30zM94-22c36 0 50-32 50-73 0-42-14-75-50-75-39 0-46 34-46 75s6 73 46 73" id="ab"/><g id="d"><use transform="matrix(0.05,0,0,0.05,0,0)" xlink:href="#X"/><use transform="matrix(0.05,0,0,0.05,5,0)" xlink:href="#U"/><use transform="matrix(0.05,0,0,0.05,8.95,0)" xlink:href="#T"/><use transform="matrix(0.05,0,0,0.05,12.899999999999999,0)" xlink:href="#V"/><use transform="matrix(0.05,0,0,0.05,17.9,0)" xlink:href="#Y"/><use transform="matrix(0.05,0,0,0.05,27.899999999999995,0)" xlink:href="#Z"/><use transform="matrix(0.05,0,0,0.05,33.85,0)" xlink:href="#U"/><use transform="matrix(0.05,0,0,0.05,37.800000000000004,0)" xlink:href="#aa"/><use transform="matrix(0.05,0,0,0.05,47.800000000000004,0)" xlink:href="#ab"/></g><path fill="#333" d="M101-234c-31-9-42 10-38 44h38v23H63V0H32v-167H5v-23h27c-7-52 17-82 69-68v24" id="ac"/><path fill="#333" d="M141-36C126-15 110 5 73 4 37 3 15-17 15-53c-1-64 63-63 125-63 3-35-9-54-41-54-24 1-41 7-42 31l-33-3c5-37 33-52 76-52 45 0 72 20 72 64v82c-1 20 7 32 28 27v20c-31 9-61-2-59-35zM48-53c0 20 12 33 32 33 41-3 63-29 60-74-43 2-92-5-92 41" id="ad"/><path fill="#333" d="M135-143c-3-34-86-38-87 0 15 53 115 12 119 90S17 21 10-45l28-5c4 36 97 45 98 0-10-56-113-15-118-90-4-57 82-63 122-42 12 7 21 19 24 35" id="ae"/><path fill="#333" d="M59-47c-2 24 18 29 38 22v24C64 9 27 4 27-40v-127H5v-23h24l9-43h21v43h35v23H59v120" id="af"/><path fill="#333" d="M115-194c55 1 70 41 70 98S169 2 115 4C84 4 66-9 55-30l1 105H24l-1-265h31l2 30c10-21 28-34 59-34zm-8 174c40 0 45-34 45-75s-6-73-45-74c-42 0-51 32-51 76 0 43 10 73 51 73" id="ag"/><g id="e"><use transform="matrix(0.05,0,0,0.05,0,0)" xlink:href="#ac"/><use transform="matrix(0.05,0,0,0.05,5,0)" xlink:href="#ad"/><use transform="matrix(0.05,0,0,0.05,15,0)" xlink:href="#ae"/><use transform="matrix(0.05,0,0,0.05,24,0)" xlink:href="#af"/><use transform="matrix(0.05,0,0,0.05,29,0)" xlink:href="#ag"/></g><path fill="#fff" d="M140-251c80 0 125 45 125 126 0 70-33 111-92 124 6 28 34 38 68 31l-1 36C177 83 129 55 120 2 51-6 15-50 15-125c0-81 44-126 125-126zm-1 214c52 0 73-35 73-88 0-50-21-86-72-86-52 0-73 35-73 86s22 88 72 88" id="ah"/><path fill="#fff" d="M67-125c0 53 21 87 73 88 37 1 54-22 65-47l45 17C233-25 199 4 140 4 58 4 20-42 15-125 8-235 124-281 211-232c18 10 29 29 36 50l-46 12c-8-25-30-41-62-41-52 0-71 34-72 86" id="ai"/><g id="f"><use transform="matrix(0.05,0,0,0.05,0,0)" xlink:href="#ah"/><use transform="matrix(0.05,0,0,0.05,14,0)" xlink:href="#ai"/><use transform="matrix(0.05,0,0,0.05,26.950000000000003,0)" xlink:href="#N"/><use transform="matrix(0.05,0,0,0.05,36.95,0)" xlink:href="#O"/></g><path fill="#fff" d="M205 0l-28-72H64L36 0H1l101-248h38L239 0h-34zm-38-99l-47-123c-12 45-31 82-46 123h93" id="aj"/><path fill="#fff" d="M135-143c-3-34-86-38-87 0 15 53 115 12 119 90S17 21 10-45l28-5c4 36 97 45 98 0-10-56-113-15-118-90-4-57 82-63 122-42 12 7 21 19 24 35" id="ak"/><path fill="#fff" d="M210-169c-67 3-38 105-44 169h-31v-121c0-29-5-50-35-48C34-165 62-65 56 0H25l-1-190h30c1 10-1 24 2 32 10-44 99-50 107 0 11-21 27-35 58-36 85-2 47 119 55 194h-31v-121c0-29-5-49-35-48" id="al"/><path fill="#fff" d="M115-194c53 0 69 39 70 98 0 66-23 100-70 100C84 3 66-7 56-30L54 0H23l1-261h32v101c10-23 28-34 59-34zm-8 174c40 0 45-34 45-75 0-40-5-75-45-74-42 0-51 32-51 76 0 43 10 73 51 73" id="am"/><g id="g"><use transform="matrix(0.05,0,0,0.05,0,0)" xlink:href="#aj"/><use transform="matrix(0.05,0,0,0.05,12,0)" xlink:href="#ak"/><use transform="matrix(0.05,0,0,0.05,21,0)" xlink:href="#ak"/><use transform="matrix(0.05,0,0,0.05,30,0)" xlink:href="#Y"/><use transform="matrix(0.05,0,0,0.05,40,0)" xlink:href="#al"/><use transform="matrix(0.05,0,0,0.05,54.95,0)" xlink:href="#am"/><use transform="matrix(0.05,0,0,0.05,64.95,0)" xlink:href="#T"/><use transform="matrix(0.05,0,0,0.05,68.9,0)" xlink:href="#W"/></g><path fill="#333" d="M210-169c-67 3-38 105-44 169h-31v-121c0-29-5-50-35-48C34-165 62-65 56 0H25l-1-190h30c1 10-1 24 2 32 10-44 99-50 107 0 11-21 27-35 58-36 85-2 47 119 55 194h-31v-121c0-29-5-49-35-48" id="an"/><path fill="#333" d="M100-194c63 0 86 42 84 106H49c0 40 14 67 53 68 26 1 43-12 49-29l28 8c-11 28-37 45-77 45C44 4 14-33 15-96c1-61 26-98 85-98zm52 81c6-60-76-77-97-28-3 7-6 17-6 28h103" id="ao"/><path fill="#333" d="M185-189c-5-48-123-54-124 2 14 75 158 14 163 119 3 78-121 87-175 55-17-10-28-26-33-46l33-7c5 56 141 63 141-1 0-78-155-14-162-118-5-82 145-84 179-34 5 7 8 16 11 25" id="ap"/><path fill="#333" d="M30-248c87 1 191-15 191 75 0 78-77 80-158 76V0H30v-248zm33 125c57 0 124 11 124-50 0-59-68-47-124-48v98" id="aq"/><path fill="#333" d="M205 0l-28-72H64L36 0H1l101-248h38L239 0h-34zm-38-99l-47-123c-12 45-31 82-46 123h93" id="ar"/><path fill="#333" d="M85-194c31 0 48 13 60 33l-1-100h32l1 261h-30c-2-10 0-23-3-31C134-8 116 4 85 4 32 4 16-35 15-94c0-66 23-100 70-100zm9 24c-40 0-46 34-46 75 0 40 6 74 45 74 42 0 51-32 51-76 0-42-9-74-50-73" id="as"/><g id="h"><use transform="matrix(0.05,0,0,0.05,0,0)" xlink:href="#an"/><use transform="matrix(0.05,0,0,0.05,14.950000000000001,0)" xlink:href="#ao"/><use transform="matrix(0.05,0,0,0.05,24.950000000000003,0)" xlink:href="#af"/><use transform="matrix(0.05,0,0,0.05,29.950000000000003,0)" xlink:href="#ad"/><use transform="matrix(0.05,0,0,0.05,39.95,0)" xlink:href="#ap"/><use transform="matrix(0.05,0,0,0.05,51.95,0)" xlink:href="#aq"/><use transform="matrix(0.05,0,0,0.05,62.6,0)" xlink:href="#ar"/><use transform="matrix(0.05,0,0,0.05,74.6,0)" xlink:href="#as"/><use transform="matrix(0.05,0,0,0.05,84.6,0)" xlink:href="#ao"/><use transform="matrix(0.05,0,0,0.05,94.6,0)" xlink:href="#ae"/></g><path fill="#fff" d="M110-194c64 0 96 36 96 99 0 64-35 99-97 99-61 0-95-36-95-99 0-62 34-99 96-99zm-1 164c35 0 45-28 45-65 0-40-10-65-43-65-34 0-45 26-45 65 0 36 10 65 43 65" id="at"/><path fill="#fff" d="M135-194c87-1 58 113 63 194h-50c-7-57 23-157-34-157-59 0-34 97-39 157H25l-1-190h47c2 12-1 28 3 38 12-26 28-41 61-42" id="au"/><path fill="#fff" d="M115-3C79 11 28 4 28-45v-112H4v-33h27l15-45h31v45h36v33H77v99c-1 23 16 31 38 25v30" id="av"/><path fill="#fff" d="M25-224v-37h50v37H25zM25 0v-190h50V0H25" id="aw"/><path fill="#fff" d="M195-6C206 82 75 100 31 46c-4-6-6-13-8-21l49-6c3 16 16 24 34 25 40 0 42-37 40-79-11 22-30 35-61 35-53 0-70-43-70-97 0-56 18-96 73-97 30 0 46 14 59 34l2-30h47zm-90-29c32 0 41-27 41-63 0-35-9-62-40-62-32 0-39 29-40 63 0 36 9 62 39 62" id="ax"/><g id="i"><use transform="matrix(0.05,0,0,0.05,0,0)" xlink:href="#ai"/><use transform="matrix(0.05,0,0,0.05,12.950000000000001,0)" xlink:href="#at"/><use transform="matrix(0.05,0,0,0.05,23.900000000000002,0)" xlink:href="#au"/><use transform="matrix(0.05,0,0,0.05,34.85,0)" xlink:href="#av"/><use transform="matrix(0.05,0,0,0.05,40.800000000000004,0)" xlink:href="#aw"/><use transform="matrix(0.05,0,0,0.05,45.800000000000004,0)" xlink:href="#ax"/><use transform="matrix(0.05,0,0,0.05,56.75,0)" xlink:href="#P"/></g><path fill="#fff" d="M143 4C61 4 22-44 18-125c-5-107 100-154 193-111 17 8 29 25 37 43l-32 9c-13-25-37-40-76-40-61 0-88 39-88 99 0 61 29 100 91 101 35 0 62-11 79-27v-45h-74v-28h105v86C228-13 192 4 143 4" id="ay"/><g id="j"><use transform="matrix(0.05,0,0,0.05,0,0)" xlink:href="#ay"/><use transform="matrix(0.05,0,0,0.05,14,0)" xlink:href="#Y"/><use transform="matrix(0.05,0,0,0.05,24,0)" xlink:href="#aa"/><use transform="matrix(0.05,0,0,0.05,34,0)" xlink:href="#Y"/></g><path fill="#fff" d="M115-194c55 1 70 41 70 98S169 2 115 4C84 4 66-9 55-30l1 105H24l-1-265h31l2 30c10-21 28-34 59-34zm-8 174c40 0 45-34 45-75s-6-73-45-74c-42 0-51 32-51 76 0 43 10 73 51 73" id="az"/><path fill="#fff" d="M85-194c31 0 48 13 60 33l-1-100h32l1 261h-30c-2-10 0-23-3-31C134-8 116 4 85 4 32 4 16-35 15-94c0-66 23-100 70-100zm9 24c-40 0-46 34-46 75 0 40 6 74 45 74 42 0 51-32 51-76 0-42-9-74-50-73" id="aA"/><path fill="#fff" d="M96-169c-40 0-48 33-48 73s9 75 48 75c24 0 41-14 43-38l32 2c-6 37-31 61-74 61-59 0-76-41-82-99-10-93 101-131 147-64 4 7 5 14 7 22l-32 3c-4-21-16-35-41-35" id="aB"/><path fill="#fff" d="M100-194c62-1 85 37 85 99 1 63-27 99-86 99S16-35 15-95c0-66 28-99 85-99zM99-20c44 1 53-31 53-75 0-43-8-75-51-75s-53 32-53 75 10 74 51 75" id="aC"/><g id="k"><use transform="matrix(0.05,0,0,0.05,0,0)" xlink:href="#az"/><use transform="matrix(0.05,0,0,0.05,10,0)" xlink:href="#Z"/><use transform="matrix(0.05,0,0,0.05,15.949999999999998,0)" xlink:href="#Y"/><use transform="matrix(0.05,0,0,0.05,25.950000000000003,0)" xlink:href="#aA"/><use transform="matrix(0.05,0,0,0.05,35.95,0)" xlink:href="#U"/><use transform="matrix(0.05,0,0,0.05,39.900000000000006,0)" xlink:href="#aB"/><use transform="matrix(0.05,0,0,0.05,48.900000000000006,0)" xlink:href="#V"/><use transform="matrix(0.05,0,0,0.05,53.900000000000006,0)" xlink:href="#U"/><use transform="matrix(0.05,0,0,0.05,57.85,0)" xlink:href="#aC"/><use transform="matrix(0.05,0,0,0.05,67.85000000000001,0)" xlink:href="#aa"/></g><path fill="#333" d="M114-163C36-179 61-72 57 0H25l-1-190h30c1 12-1 29 2 39 6-27 23-49 58-41v29" id="aD"/><path fill="#333" d="M100-194c62-1 85 37 85 99 1 63-27 99-86 99S16-35 15-95c0-66 28-99 85-99zM99-20c44 1 53-31 53-75 0-43-8-75-51-75s-53 32-53 75 10 74 51 75" id="aE"/><path fill="#333" d="M24-231v-30h32v30H24zM24 0v-190h32V0H24" id="aF"/><path fill="#333" d="M177-190C167-65 218 103 67 71c-23-6-38-20-44-43l32-5c15 47 100 32 89-28v-30C133-14 115 1 83 1 29 1 15-40 15-95c0-56 16-97 71-98 29-1 48 16 59 35 1-10 0-23 2-32h30zM94-22c36 0 50-32 50-73 0-42-14-75-50-75-39 0-46 34-46 75s6 73 46 73" id="aG"/><path fill="#333" d="M24 0v-261h32V0H24" id="aH"/><g id="l"><use transform="matrix(0.05,0,0,0.05,0,0)" xlink:href="#aq"/><use transform="matrix(0.05,0,0,0.05,12,0)" xlink:href="#aD"/><use transform="matrix(0.05,0,0,0.05,17.95,0)" xlink:href="#aE"/><use transform="matrix(0.05,0,0,0.05,27.950000000000003,0)" xlink:href="#as"/><use transform="matrix(0.05,0,0,0.05,37.95,0)" xlink:href="#aF"/><use transform="matrix(0.05,0,0,0.05,41.900000000000006,0)" xlink:href="#aG"/><use transform="matrix(0.05,0,0,0.05,51.900000000000006,0)" xlink:href="#ad"/><use transform="matrix(0.05,0,0,0.05,61.900000000000006,0)" xlink:href="#aH"/></g><path fill="#fff" d="M199 0l-22-63H83L61 0H9l90-248h61L250 0h-51zm-33-102l-36-108c-10 38-24 72-36 108h72" id="aI"/><path fill="#fff" d="M25 0v-261h50V0H25" id="aJ"/><path fill="#fff" d="M220-157c-53 9-28 100-34 157h-49v-107c1-27-5-49-29-50C55-147 81-57 75 0H25l-1-190h47c2 12-1 28 3 38 10-53 101-56 108 0 13-22 24-43 59-42 82 1 51 116 57 194h-49v-107c-1-25-5-48-29-50" id="aK"/><g id="m"><use transform="matrix(0.05,0,0,0.05,0,0)" xlink:href="#aI"/><use transform="matrix(0.05,0,0,0.05,12.950000000000001,0)" xlink:href="#aJ"/><use transform="matrix(0.05,0,0,0.05,17.950000000000003,0)" xlink:href="#aw"/><use transform="matrix(0.05,0,0,0.05,22.950000000000003,0)" xlink:href="#ax"/><use transform="matrix(0.05,0,0,0.05,33.900000000000006,0)" xlink:href="#au"/><use transform="matrix(0.05,0,0,0.05,44.85000000000001,0)" xlink:href="#aK"/><use transform="matrix(0.05,0,0,0.05,60.85,0)" xlink:href="#N"/><use transform="matrix(0.05,0,0,0.05,70.85000000000001,0)" xlink:href="#au"/><use transform="matrix(0.05,0,0,0.05,81.80000000000001,0)" xlink:href="#av"/><use transform="matrix(0.05,0,0,0.05,87.75000000000001,0)" xlink:href="#P"/></g><g id="n"><use transform="matrix(0.05,0,0,0.05,0,0)" xlink:href="#ai"/><use transform="matrix(0.05,0,0,0.05,12.950000000000001,0)" xlink:href="#at"/><use transform="matrix(0.05,0,0,0.05,23.900000000000002,0)" xlink:href="#O"/><use transform="matrix(0.05,0,0,0.05,34.85,0)" xlink:href="#aw"/><use transform="matrix(0.05,0,0,0.05,39.85,0)" xlink:href="#au"/><use transform="matrix(0.05,0,0,0.05,50.800000000000004,0)" xlink:href="#ax"/></g><path fill="#fff" d="M84 4C32 4 15-41 15-95c0-55 18-99 73-99 29 0 47 12 58 34l2-30h48l-1 265h-49V-32C136-9 114 4 84 4zm21-34c32 0 41-29 41-66 0-36-9-64-40-64-33 0-39 30-40 65 0 43 13 65 39 65" id="aL"/><path fill="#fff" d="M85 4C-2 5 27-109 22-190h50c7 57-23 150 33 157 60-5 35-97 40-157h50l1 190h-47c-2-12 1-28-3-38-12 25-28 42-61 42" id="aM"/><path fill="#fff" d="M190-63c-7 42-38 67-86 67-59 0-84-38-90-98-12-110 154-137 174-36l-49 2c-2-19-15-32-35-32-30 0-35 28-38 64-6 74 65 87 74 30" id="aN"/><g id="o"><use transform="matrix(0.05,0,0,0.05,0,0)" xlink:href="#P"/><use transform="matrix(0.05,0,0,0.05,10,0)" xlink:href="#N"/><use transform="matrix(0.05,0,0,0.05,20,0)" xlink:href="#aL"/><use transform="matrix(0.05,0,0,0.05,30.950000000000003,0)" xlink:href="#aM"/><use transform="matrix(0.05,0,0,0.05,41.900000000000006,0)" xlink:href="#N"/><use transform="matrix(0.05,0,0,0.05,51.900000000000006,0)" xlink:href="#au"/><use transform="matrix(0.05,0,0,0.05,62.85,0)" xlink:href="#aN"/><use transform="matrix(0.05,0,0,0.05,72.85000000000001,0)" xlink:href="#N"/><use transform="matrix(0.05,0,0,0.05,82.85000000000001,0)" xlink:href="#P"/></g><g id="p"><use transform="matrix(0.05,0,0,0.05,0,0)" xlink:href="#aj"/><use transform="matrix(0.05,0,0,0.05,12,0)" xlink:href="#aa"/><use transform="matrix(0.05,0,0,0.05,22,0)" xlink:href="#aa"/><use transform="matrix(0.05,0,0,0.05,32,0)" xlink:href="#aC"/><use transform="matrix(0.05,0,0,0.05,42,0)" xlink:href="#V"/><use transform="matrix(0.05,0,0,0.05,47,0)" xlink:href="#S"/><use transform="matrix(0.05,0,0,0.05,57,0)" xlink:href="#V"/><use transform="matrix(0.05,0,0,0.05,62,0)" xlink:href="#U"/><use transform="matrix(0.05,0,0,0.05,65.95,0)" xlink:href="#aC"/><use transform="matrix(0.05,0,0,0.05,75.95,0)" xlink:href="#aa"/></g><path fill="#333" d="M190 0L58-211 59 0H30v-248h39L202-35l-2-213h31V0h-41" id="aO"/><path fill="#333" d="M140-251c81 0 123 46 123 126C263-46 219 4 140 4 59 4 17-45 17-125s42-126 123-126zm0 227c63 0 89-41 89-101s-29-99-89-99c-61 0-89 39-89 99S79-25 140-24" id="aP"/><path fill="#333" d="M143 4C61 4 22-44 18-125c-5-107 100-154 193-111 17 8 29 25 37 43l-32 9c-13-25-37-40-76-40-61 0-88 39-88 99 0 61 29 100 91 101 35 0 62-11 79-27v-45h-74v-28h105v86C228-13 192 4 143 4" id="aQ"/><path fill="#333" d="M16-82v-28h88v28H16" id="aR"/><g id="q"><use transform="matrix(0.05,0,0,0.05,0,0)" xlink:href="#ao"/><use transform="matrix(0.05,0,0,0.05,10,0)" xlink:href="#aG"/><use transform="matrix(0.05,0,0,0.05,20,0)" xlink:href="#aG"/><use transform="matrix(0.05,0,0,0.05,30,0)" xlink:href="#aO"/><use transform="matrix(0.05,0,0,0.05,42.95,0)" xlink:href="#aP"/><use transform="matrix(0.05,0,0,0.05,56.95,0)" xlink:href="#aQ"/><use transform="matrix(0.05,0,0,0.05,70.95,0)" xlink:href="#aR"/><use transform="matrix(0.05,0,0,0.05,76.9,0)" xlink:href="#an"/><use transform="matrix(0.05,0,0,0.05,91.85000000000001,0)" xlink:href="#ad"/><use transform="matrix(0.05,0,0,0.05,101.85000000000001,0)" xlink:href="#ag"/><use transform="matrix(0.05,0,0,0.05,111.85000000000001,0)" xlink:href="#ag"/><use transform="matrix(0.05,0,0,0.05,121.85000000000001,0)" xlink:href="#ao"/><use transform="matrix(0.05,0,0,0.05,131.85000000000002,0)" xlink:href="#aD"/></g><g id="r"><use transform="matrix(0.05,0,0,0.05,0,0)" xlink:href="#aI"/><use transform="matrix(0.05,0,0,0.05,12.950000000000001,0)" xlink:href="#au"/><use transform="matrix(0.05,0,0,0.05,23.900000000000002,0)" xlink:href="#au"/><use transform="matrix(0.05,0,0,0.05,34.85,0)" xlink:href="#at"/><use transform="matrix(0.05,0,0,0.05,45.800000000000004,0)" xlink:href="#av"/><use transform="matrix(0.05,0,0,0.05,51.75,0)" xlink:href="#K"/><use transform="matrix(0.05,0,0,0.05,61.75,0)" xlink:href="#av"/><use transform="matrix(0.05,0,0,0.05,67.7,0)" xlink:href="#N"/><use transform="matrix(0.05,0,0,0.05,77.7,0)" xlink:href="#O"/></g><path fill="#fff" d="M135-194c53 0 70 44 70 98 0 56-19 98-73 100-31 1-45-17-59-34 3 33 2 69 2 105H25l-1-265h48c2 10 0 23 3 31 11-24 29-35 60-35zM114-30c33 0 39-31 40-66 0-38-9-64-40-64-56 0-55 130 0 130" id="aS"/><g id="s"><use transform="matrix(0.05,0,0,0.05,0,0)" xlink:href="#aS"/><use transform="matrix(0.05,0,0,0.05,10.950000000000001,0)" xlink:href="#M"/><use transform="matrix(0.05,0,0,0.05,17.950000000000003,0)" xlink:href="#at"/><use transform="matrix(0.05,0,0,0.05,28.900000000000006,0)" xlink:href="#av"/><use transform="matrix(0.05,0,0,0.05,34.85000000000001,0)" xlink:href="#N"/><use transform="matrix(0.05,0,0,0.05,44.85000000000001,0)" xlink:href="#aw"/><use transform="matrix(0.05,0,0,0.05,49.85000000000001,0)" xlink:href="#au"/><use transform="matrix(0.05,0,0,0.05,60.80000000000001,0)" xlink:href="#P"/></g><path fill="#fff" d="M233-177c-1 41-23 64-60 70L243 0h-38l-65-103H63V0H30v-248c88 3 205-21 203 71zM63-129c60-2 137 13 137-47 0-61-80-42-137-45v92" id="aT"/><g id="t"><use transform="matrix(0.05,0,0,0.05,0,0)" xlink:href="#aT"/><use transform="matrix(0.05,0,0,0.05,12.950000000000001,0)" xlink:href="#Y"/><use transform="matrix(0.05,0,0,0.05,22.950000000000003,0)" xlink:href="#S"/><use transform="matrix(0.05,0,0,0.05,32.95,0)" xlink:href="#aA"/></g><g id="u"><use transform="matrix(0.05,0,0,0.05,0,0)" xlink:href="#al"/><use transform="matrix(0.05,0,0,0.05,14.950000000000001,0)" xlink:href="#S"/><use transform="matrix(0.05,0,0,0.05,24.950000000000003,0)" xlink:href="#az"/><use transform="matrix(0.05,0,0,0.05,34.95,0)" xlink:href="#az"/><use transform="matrix(0.05,0,0,0.05,44.95,0)" xlink:href="#U"/><use transform="matrix(0.05,0,0,0.05,48.900000000000006,0)" xlink:href="#aa"/><use transform="matrix(0.05,0,0,0.05,58.900000000000006,0)" xlink:href="#ab"/></g><path fill="#333" d="M160-131c35 5 61 23 61 61C221 17 115-2 30 0v-248c76 3 177-17 177 60 0 33-19 50-47 57zm-97-11c50-1 110 9 110-42 0-47-63-36-110-37v79zm0 115c55-2 124 14 124-45 0-56-70-42-124-44v89" id="aU"/><path fill="#333" d="M266 0h-40l-56-210L115 0H75L2-248h35L96-30l15-64 43-154h32l59 218 59-218h35" id="aV"/><g id="v"><use transform="matrix(0.05,0,0,0.05,0,0)" xlink:href="#aU"/><use transform="matrix(0.05,0,0,0.05,12,0)" xlink:href="#aV"/><use transform="matrix(0.05,0,0,0.05,28.299999999999997,0)" xlink:href="#ar"/></g><path fill="#fff" d="M160-131c35 5 61 23 61 61C221 17 115-2 30 0v-248c76 3 177-17 177 60 0 33-19 50-47 57zm-97-11c50-1 110 9 110-42 0-47-63-36-110-37v79zm0 115c55-2 124 14 124-45 0-56-70-42-124-44v89" id="aW"/><g id="w"><use transform="matrix(0.05,0,0,0.05,0,0)" xlink:href="#aW"/><use transform="matrix(0.05,0,0,0.05,12,0)" xlink:href="#U"/><use transform="matrix(0.05,0,0,0.05,15.949999999999998,0)" xlink:href="#aa"/><use transform="matrix(0.05,0,0,0.05,25.950000000000003,0)" xlink:href="#aa"/><use transform="matrix(0.05,0,0,0.05,35.95,0)" xlink:href="#U"/><use transform="matrix(0.05,0,0,0.05,39.900000000000006,0)" xlink:href="#aa"/><use transform="matrix(0.05,0,0,0.05,49.900000000000006,0)" xlink:href="#ab"/></g><path fill="#333" d="M240 0l2-218c-23 76-54 145-80 218h-23L58-218 59 0H30v-248h44l77 211c21-75 51-140 76-211h43V0h-30" id="aX"/><path fill="#333" d="M127-220V0H93v-220H8v-28h204v28h-85" id="aY"/><g id="x"><use transform="matrix(0.05,0,0,0.05,0,0)" xlink:href="#aX"/><use transform="matrix(0.05,0,0,0.05,14.950000000000001,0)" xlink:href="#ao"/><use transform="matrix(0.05,0,0,0.05,24.950000000000003,0)" xlink:href="#af"/><use transform="matrix(0.05,0,0,0.05,29.950000000000003,0)" xlink:href="#ad"/><use transform="matrix(0.05,0,0,0.05,39.95,0)" xlink:href="#aU"/><use transform="matrix(0.05,0,0,0.05,51.95,0)" xlink:href="#ar"/><use transform="matrix(0.05,0,0,0.05,62.6,0)" xlink:href="#aY"/></g><path fill="#333" d="M101-251c82-7 93 87 43 132L82-64C71-53 59-42 53-27h129V0H18c2-99 128-94 128-182 0-28-16-43-45-43s-46 15-49 41l-32-3c6-41 34-60 81-64" id="aZ"/><use transform="matrix(0.05,0,0,0.05,0,0)" xlink:href="#aZ" id="y"/><path fill="#fff" d="M182-130c37 4 62 22 62 59C244 23 116-4 24 0v-248c84 5 203-23 205 63 0 31-19 50-47 55zM76-148c40-3 101 13 101-30 0-44-60-28-101-31v61zm0 110c48-3 116 14 116-37 0-48-69-32-116-35v72" id="ba"/><g id="z"><use transform="matrix(0.05,0,0,0.05,0,0)" xlink:href="#ba"/><use transform="matrix(0.05,0,0,0.05,12.950000000000001,0)" xlink:href="#aw"/><use transform="matrix(0.05,0,0,0.05,17.950000000000003,0)" xlink:href="#au"/><use transform="matrix(0.05,0,0,0.05,28.900000000000006,0)" xlink:href="#P"/></g><g id="A"><use transform="matrix(0.05,0,0,0.05,0,0)" xlink:href="#aW"/><use transform="matrix(0.05,0,0,0.05,12,0)" xlink:href="#U"/><use transform="matrix(0.05,0,0,0.05,15.949999999999998,0)" xlink:href="#aa"/></g><path fill="#fff" d="M212-179c-10-28-35-45-73-45-59 0-87 40-87 99 0 60 29 101 89 101 43 0 62-24 78-52l27 14C228-24 195 4 139 4 59 4 22-46 18-125c-6-104 99-153 187-111 19 9 31 26 39 46" id="bb"/><g id="B"><use transform="matrix(0.05,0,0,0.05,0,0)" xlink:href="#Q"/><use transform="matrix(0.05,0,0,0.05,14,0)" xlink:href="#bb"/></g><path fill="#333" d="M212-179c-10-28-35-45-73-45-59 0-87 40-87 99 0 60 29 101 89 101 43 0 62-24 78-52l27 14C228-24 195 4 139 4 59 4 22-46 18-125c-6-104 99-153 187-111 19 9 31 26 39 46" id="bc"/><path fill="#333" d="M106-169C34-169 62-67 57 0H25v-261h32l-1 103c12-21 28-36 61-36 89 0 53 116 60 194h-32v-121c2-32-8-49-39-48" id="bd"/><path fill="#333" d="M96-169c-40 0-48 33-48 73s9 75 48 75c24 0 41-14 43-38l32 2c-6 37-31 61-74 61-59 0-76-41-82-99-10-93 101-131 147-64 4 7 5 14 7 22l-32 3c-4-21-16-35-41-35" id="be"/><path fill="#333" d="M143 0L79-87 56-68V0H24v-261h32v163l83-92h37l-77 82L181 0h-38" id="bf"/><g id="C"><use transform="matrix(0.05,0,0,0.05,0,0)" xlink:href="#bc"/><use transform="matrix(0.05,0,0,0.05,12.950000000000001,0)" xlink:href="#bd"/><use transform="matrix(0.05,0,0,0.05,22.950000000000003,0)" xlink:href="#ao"/><use transform="matrix(0.05,0,0,0.05,32.95,0)" xlink:href="#be"/><use transform="matrix(0.05,0,0,0.05,41.95,0)" xlink:href="#bf"/><use transform="matrix(0.05,0,0,0.05,50.95,0)" xlink:href="#aX"/></g><path fill="#fff" d="M186 0v-106H76V0H24v-248h52v99h110v-99h50V0h-50" id="bg"/><path fill="#fff" d="M114-157C55-157 80-60 75 0H25v-261h50l-1 109c12-26 28-41 61-42 86-1 58 113 63 194h-50c-7-57 23-157-34-157" id="bh"/><path fill="#fff" d="M14-72v-43h91v43H14" id="bi"/><path fill="#fff" d="M123 10C108 53 80 86 19 72V37c35 8 53-11 59-39L3-190h52l48 148c12-52 28-100 44-148h51" id="bj"/><g id="D"><use transform="matrix(0.05,0,0,0.05,0,0)" xlink:href="#bg"/><use transform="matrix(0.05,0,0,0.05,12.950000000000001,0)" xlink:href="#aw"/><use transform="matrix(0.05,0,0,0.05,17.950000000000003,0)" xlink:href="#ax"/><use transform="matrix(0.05,0,0,0.05,28.900000000000006,0)" xlink:href="#bh"/><use transform="matrix(0.05,0,0,0.05,39.85000000000001,0)" xlink:href="#bi"/><use transform="matrix(0.05,0,0,0.05,45.80000000000001,0)" xlink:href="#aL"/><use transform="matrix(0.05,0,0,0.05,56.750000000000014,0)" xlink:href="#aM"/><use transform="matrix(0.05,0,0,0.05,67.70000000000002,0)" xlink:href="#K"/><use transform="matrix(0.05,0,0,0.05,77.70000000000002,0)" xlink:href="#aJ"/><use transform="matrix(0.05,0,0,0.05,82.70000000000002,0)" xlink:href="#aw"/><use transform="matrix(0.05,0,0,0.05,87.70000000000002,0)" xlink:href="#av"/><use transform="matrix(0.05,0,0,0.05,93.65000000000002,0)" xlink:href="#bj"/></g><path fill="#fff" d="M230 0l2-204L168 0h-37L68-204 70 0H24v-248h70l56 185 57-185h69V0h-46" id="bk"/><path fill="#fff" d="M67-125c0 54 23 88 75 88 28 0 53-7 68-21v-34h-60v-39h108v91C232-14 192 4 140 4 58 4 20-42 15-125 8-236 126-280 215-234c19 10 29 26 37 47l-47 15c-11-23-29-39-63-39-53 1-75 33-75 86" id="bl"/><path fill="#fff" d="M169-182c-1-43-94-46-97-3 18 66 151 10 154 114 3 95-165 93-204 36-6-8-10-19-12-30l50-8c3 46 112 56 116 5-17-69-150-10-154-114-4-87 153-88 188-35 5 8 8 18 10 28" id="bm"/><g id="E"><use transform="matrix(0.05,0,0,0.05,0,0)" xlink:href="#bk"/><use transform="matrix(0.05,0,0,0.05,14.950000000000001,0)" xlink:href="#aI"/><use transform="matrix(0.05,0,0,0.05,27.900000000000002,0)" xlink:href="#bl"/><use transform="matrix(0.05,0,0,0.05,41.900000000000006,0)" xlink:href="#bm"/></g><g id="F"><use transform="matrix(0.05,0,0,0.05,0,0)" xlink:href="#bb"/><use transform="matrix(0.05,0,0,0.05,12.950000000000001,0)" xlink:href="#T"/><use transform="matrix(0.05,0,0,0.05,16.900000000000002,0)" xlink:href="#S"/><use transform="matrix(0.05,0,0,0.05,26.900000000000002,0)" xlink:href="#ak"/><use transform="matrix(0.05,0,0,0.05,35.900000000000006,0)" xlink:href="#ak"/><use transform="matrix(0.05,0,0,0.05,44.900000000000006,0)" xlink:href="#U"/><use transform="matrix(0.05,0,0,0.05,48.85000000000001,0)" xlink:href="#X"/><use transform="matrix(0.05,0,0,0.05,53.85,0)" xlink:href="#U"/><use transform="matrix(0.05,0,0,0.05,57.80000000000001,0)" xlink:href="#aB"/><use transform="matrix(0.05,0,0,0.05,66.80000000000001,0)" xlink:href="#S"/><use transform="matrix(0.05,0,0,0.05,76.80000000000001,0)" xlink:href="#V"/><use transform="matrix(0.05,0,0,0.05,81.80000000000001,0)" xlink:href="#U"/><use transform="matrix(0.05,0,0,0.05,85.75000000000001,0)" xlink:href="#aC"/><use transform="matrix(0.05,0,0,0.05,95.75000000000001,0)" xlink:href="#aa"/></g><path fill="#333" d="M30-248c118-7 216 8 213 122C240-48 200 0 122 0H30v-248zM63-27c89 8 146-16 146-99s-60-101-146-95v194" id="bn"/><g id="G"><use transform="matrix(0.05,0,0,0.05,0,0)" xlink:href="#aQ"/><use transform="matrix(0.05,0,0,0.05,14,0)" xlink:href="#aY"/><use transform="matrix(0.05,0,0,0.05,24.950000000000003,0)" xlink:href="#bn"/><use transform="matrix(0.05,0,0,0.05,37.900000000000006,0)" xlink:href="#aU"/><use transform="matrix(0.05,0,0,0.05,49.900000000000006,0)" xlink:href="#aR"/><use transform="matrix(0.05,0,0,0.05,55.85,0)" xlink:href="#aY"/><use transform="matrix(0.05,0,0,0.05,66.80000000000001,0)" xlink:href="#bf"/></g><path fill="#fff" d="M30-248c118-7 216 8 213 122C240-48 200 0 122 0H30v-248zM63-27c89 8 146-16 146-99s-60-101-146-95v194" id="bo"/><g id="H"><use transform="matrix(0.05,0,0,0.05,0,0)" xlink:href="#bo"/><use transform="matrix(0.05,0,0,0.05,12.950000000000001,0)" xlink:href="#Y"/><use transform="matrix(0.05,0,0,0.05,22.950000000000003,0)" xlink:href="#Z"/><use transform="matrix(0.05,0,0,0.05,28.900000000000002,0)" xlink:href="#Y"/><use transform="matrix(0.05,0,0,0.05,38.900000000000006,0)" xlink:href="#az"/><use transform="matrix(0.05,0,0,0.05,48.900000000000006,0)" xlink:href="#T"/><use transform="matrix(0.05,0,0,0.05,52.85,0)" xlink:href="#U"/><use transform="matrix(0.05,0,0,0.05,56.80000000000001,0)" xlink:href="#aB"/><use transform="matrix(0.05,0,0,0.05,65.80000000000001,0)" xlink:href="#S"/><use transform="matrix(0.05,0,0,0.05,75.80000000000001,0)" xlink:href="#V"/><use transform="matrix(0.05,0,0,0.05,80.80000000000001,0)" xlink:href="#U"/><use transform="matrix(0.05,0,0,0.05,84.75000000000001,0)" xlink:href="#aC"/><use transform="matrix(0.05,0,0,0.05,94.75000000000001,0)" xlink:href="#aa"/></g><path fill="#333" d="M233-177c-1 41-23 64-60 70L243 0h-38l-65-103H63V0H30v-248c88 3 205-21 203 71zM63-129c60-2 137 13 137-47 0-61-80-42-137-45v92" id="bp"/><g id="I"><use transform="matrix(0.05,0,0,0.05,0,0)" xlink:href="#as"/><use transform="matrix(0.05,0,0,0.05,10,0)" xlink:href="#bp"/><use transform="matrix(0.05,0,0,0.05,22.950000000000003,0)" xlink:href="#ao"/><use transform="matrix(0.05,0,0,0.05,32.95,0)" xlink:href="#ag"/></g></defs></g></svg>